<?xml version="1.0" standalone="no"?>
<!DOCTYPE svg PUBLIC "-//W3C//DTD SVG 20010904//EN"
 "http://www.w3.org/TR/2001/REC-SVG-20010904/DTD/svg10.dtd">
<svg version="1.0" xmlns="http://www.w3.org/2000/svg"
 width="232.000000pt" height="232.000000pt" viewBox="0 0 232.000000 232.000000"
 preserveAspectRatio="xMidYMid meet">
<metadata>
Created by potrace 1.14, written by Peter Selinger 2001-2017
</metadata>
<g transform="translate(0.000000,232.000000) scale(0.100000,-0.100000)"
fill="#000000" stroke="none">
<path d="M510 2311 c0 -5 7 -11 14 -14 10 -4 13 -1 9 9 -6 15 -23 19 -23 5z"/>
<path d="M1304 2285 c-4 -9 -4 -26 -2 -40 5 -22 0 -26 -58 -45 -78 -26 -170
-85 -212 -136 -74 -89 -110 -220 -96 -349 10 -86 9 -109 -5 -160 -14 -54 -55
-80 -101 -64 -17 7 -58 9 -89 6 -147 -13 -221 -105 -229 -284 -5 -98 6 -249
16 -238 3 3 13 34 22 68 10 40 21 63 31 65 9 2 16 -4 16 -13 0 -8 -4 -15 -8
-15 -6 0 -11 -12 -24 -62 -2 -5 -4 -11 -5 -15 -1 -5 -2 -11 -1 -15 0 -5 -3 -8
-8 -8 -5 0 -11 -15 -15 -32 -5 -25 -9 -30 -16 -18 -6 10 -9 3 -10 -25 -2 -92
-4 -104 -17 -93 -17 14 -16 8 3 -33 26 -57 40 -79 47 -72 6 5 12 -28 8 -50 0
-4 3 -7 7 -7 11 0 8 -27 -7 -63 -6 -16 -11 -33 -11 -38 0 -6 -5 -7 -12 -3 -7
5 -9 2 -6 -7 4 -9 -1 -15 -12 -16 -9 -1 -38 -11 -64 -24 -65 -30 -131 -120
-69 -94 10 4 25 9 34 10 9 1 27 11 39 23 13 12 29 23 34 24 6 0 16 2 21 2 6 1
16 5 23 9 28 18 61 17 71 -2 9 -16 7 -20 -14 -25 -33 -8 -105 -80 -105 -105 0
-13 18 -26 63 -46 34 -15 64 -31 67 -35 7 -8 43 -24 53 -22 4 1 7 -2 7 -7 0
-9 100 -56 113 -53 4 1 7 -2 7 -8 0 -15 54 -25 110 -22 46 4 51 7 56 30 5 25
10 27 53 27 58 -1 108 -21 116 -46 4 -11 28 -31 55 -44 58 -29 61 -30 53 -10
-4 12 0 15 21 11 35 -6 48 -15 40 -28 -4 -7 -2 -8 4 -4 7 4 12 2 12 -4 0 -7 7
-10 15 -6 8 3 15 2 15 -3 0 -4 6 -8 13 -9 6 0 37 -4 68 -8 75 -9 183 11 260
47 123 58 238 187 300 337 12 28 25 52 29 52 4 0 7 6 7 13 1 19 12 69 23 107
19 59 20 208 4 290 -8 41 -17 93 -19 115 -6 62 -16 109 -24 115 -5 3 -11 17
-15 33 -4 17 -13 27 -25 27 -10 0 -26 9 -35 19 -10 11 -42 29 -71 41 -41 16
-55 28 -60 48 -12 46 -14 72 -4 78 5 3 7 9 4 14 -9 14 29 46 80 69 40 18 49
28 74 83 33 73 44 128 43 216 -1 99 -31 173 -108 268 -31 38 -40 55 -28 51 11
-4 4 6 -16 24 -63 55 -150 107 -213 128 -68 23 -209 45 -243 38 -13 -2 -26 3
-33 15 -14 22 -39 24 -47 3z m453 -214 c39 -29 99 -103 82 -99 -7 2 -20 9 -28
15 -47 37 -55 44 -41 37 8 -4 -7 17 -35 46 -48 51 -44 52 22 1z m-752 -161
c-13 -41 -28 -93 -32 -115 l-7 -40 -4 33 c-4 34 20 128 45 175 24 48 23 26 -2
-53z m939 -348 c-4 -18 -10 -32 -15 -32 -4 0 -3 15 2 32 5 18 9 35 9 37 0 2 2
2 5 -1 3 -3 2 -19 -1 -36z"/>
<path d="M566 2273 c-6 -14 -5 -15 5 -6 7 7 10 15 7 18 -3 3 -9 -2 -12 -12z"/>
<path d="M230 2123 c0 -86 2 -154 4 -152 3 3 16 49 30 103 38 145 33 206 -16
206 -17 0 -18 -12 -18 -157z"/>
<path d="M520 2250 c0 -5 4 -10 9 -10 6 0 13 5 16 10 3 6 -1 10 -9 10 -9 0
-16 -4 -16 -10z"/>
<path d="M560 2220 c-9 -6 -10 -10 -3 -10 6 0 15 5 18 10 8 12 4 12 -15 0z"/>
<path d="M450 2120 c0 -5 5 -10 11 -10 5 0 7 5 4 10 -3 6 -8 10 -11 10 -2 0
-4 -4 -4 -10z"/>
<path d="M2050 2116 c0 -3 9 -10 20 -16 11 -6 20 -8 20 -6 0 3 -9 10 -20 16
-11 6 -20 8 -20 6z"/>
<path d="M1901 2051 c-19 -13 -4 -31 26 -31 19 0 24 4 19 16 -3 9 -6 18 -6 20
0 7 -24 4 -39 -5z"/>
<path d="M687 1852 c-22 -25 -21 -48 3 -72 52 -52 126 19 79 76 -16 20 -63 17
-82 -4z"/>
<path d="M260 1719 c-7 -11 -10 -23 -7 -25 2 -2 9 7 15 21 14 30 7 33 -8 4z"/>
<path d="M459 1004 c-5 -15 -8 -29 -5 -31 2 -2 8 10 14 26 13 38 5 41 -9 5z"/>
<path d="M265 511 c-8 -15 3 -31 21 -31 9 0 14 7 12 17 -4 20 -24 28 -33 14z"/>
</g>
</svg>
